<svg width="2000" height="2000" viewBox="0 0 2000 2000" fill="none" xmlns="http://www.w3.org/2000/svg">
<mask id="mask0_145_2" style="mask-type:alpha" maskUnits="userSpaceOnUse" x="0" y="0" width="2000" height="2000">
<rect width="2000" height="2000" fill="white"/>
</mask>
<g mask="url(#mask0_145_2)">
<path d="M723.196 940.337L1979.27 782.983C2051.41 773.944 2118.47 821.642 2133.6 892.762L2391.62 2105.44C2409.95 2191.61 2345.1 2273.09 2257.01 2274.56L488.017 2304L-292.395 2210.34C-367.824 2201.29 -422.269 2133.73 -415.086 2058.1L-409.037 1994.42C-404.424 1945.85 -374.859 1903.18 -331.004 1881.81L72.0789 1685.34C91.2349 1676 108.007 1662.41 121.116 1645.61L630.222 993.129C653.009 963.925 686.441 944.942 723.196 940.337Z" fill="#E7F1FF"/>
<path d="M196.074 392.593L312.982 308.476C335.1 292.562 361.66 284 388.908 284H406.735C428.56 284 450.034 289.495 469.176 299.977L521.476 328.618C561.879 350.743 587 393.141 587 439.206C587 488.959 557.742 534.06 512.309 554.34L451.355 581.549C427.462 592.214 407.779 610.502 395.39 633.549C358.29 702.562 265.554 717.08 209.139 662.707L181.787 636.346C156.363 611.843 142 578.052 142 542.743V498.117C142 456.291 162.124 417.021 196.074 392.593Z" fill="#2063BA" fill-opacity="0.25"/>
<path d="M9.3614 368.279C-0.951571 454.058 -12.8107 554.738 -20.9926 629.188C-27.8264 691.372 14.4476 736.5 77.0055 736.5H294.499C342.571 736.5 386.719 709.972 409.285 667.526L526.609 446.845C548.29 406.065 546.706 356.844 522.45 317.542L490.824 266.301C462.169 219.873 407.573 196.277 354.123 207.22L112.211 256.747C57.4883 267.951 16.029 312.821 9.3614 368.279Z" fill="#2063BA" fill-opacity="0.25"/>
<path d="M1776.89 500.147L2052 275.147C2108.6 228.857 2123.58 148.502 2087.46 84.9297L1964.71 -131.101C1945.94 -164.131 1915.34 -188.809 1879.08 -200.153L1415.51 -345.201C1335.2 -370.329 1249.93 -324.491 1226.6 -243.644L1070.08 298.613C1059.73 334.45 1063.11 372.856 1079.55 406.336L1100.65 449.292C1118.46 485.555 1150.14 513.1 1188.53 525.694L1345.82 577.295C1369.25 584.98 1394.2 586.773 1418.49 582.515L1707.83 531.78C1733.18 527.335 1756.97 516.441 1776.89 500.147Z" fill="#3A4655" fill-opacity="0.25"/>
</g>
</svg>
