<svg version="1.2" xmlns="http://www.w3.org/2000/svg" viewBox="0 0 512 512">
	<title>Icon - Statistics</title>
	<path fill="#3a4655" fill-rule="evenodd" d="m190.5 33.9l2.8 2.6c1.6 1.5 2.7 3.6 2.7 5.3 0.1 1.5-0.8 3.8-3.8 7.7l-170.2 1-6.5 6.5-0.5 273h482l-0.5-273.2-7.5-6.8h-135.5c-88.6 0-136.3-0.3-137.8-1-1.2-0.6-2.8-2.1-3.4-3.5-0.7-1.4-1.3-3.2-1.3-4 0-0.8 1.3-2.8 5.8-7.5h134.9c134 0 134.8 0 140.8 2.1 3.3 1.1 7.7 3.5 9.9 5.2 2.2 1.8 5.1 5.8 9.6 15.2l-0.5 334-2.1 4c-1.2 2.2-3.7 5.5-5.5 7.4-1.9 1.9-5.7 4.5-13.4 8.1h-178.5l0.5 2.2c0.3 1.3 1.8 11.5 3.5 22.8 1.6 11.3 3.2 22 4 27h17.5c12.7 0 18.2 0.4 20.2 1.4 1.6 0.7 3.1 2.1 3.5 3 0.5 0.9 0.8 2.5 0.8 3.6 0 1.1-1.1 3.4-5 8h-202l-2.5-3c-1.4-1.6-2.5-3.9-2.5-5 0-1.1 0.3-2.7 0.7-3.6 0.5-0.9 2-2.3 3.5-3 2.1-1 7.6-1.4 37.8-1.4l0.5-3.3c0.3-1.7 1.9-12.4 3.5-23.7 1.7-11.3 3.2-21.5 4-25h-98l-2.5-2.5c-1.4-1.4-2.5-3.5-2.5-4.8-0.1-1.2 0.8-3.3 3.8-7.2l194.5-0.5c192.7-0.5 194.5-0.5 196.7-2.5 1.2-1.1 2.8-3.2 3.6-4.8 1.1-2 1.4-7.6 1.4-42.7h-482l0.5 43 6.5 6.5 56.2 1 1.9 2.5c1.1 1.4 2 3.6 1.9 5 0 1.4-1 3.5-2.3 4.8-2.2 2.2-2.4 2.3-30.2 2.2-27.2 0-28.1-0.1-33-2.3-2.8-1.3-6.5-3.9-8.4-5.8-1.9-1.9-4.5-5.7-8.1-13.4l0.5-334 3-5.4c1.8-3.3 4.7-6.7 7.3-8.5 2.4-1.7 6.4-3.9 9-4.8 4.2-1.5 12.8-1.7 170.7-1.9zm24.1 378.9c-0.3 1.5-1.9 12.2-3.6 23.7-1.7 11.6-3.3 22-3.5 23.3l-0.5 2.2h98c-0.8-3.5-2.3-13.9-4-25.5-1.7-11.5-3.2-22.2-3.5-23.7l-0.5-2.8h-81.9zm211-346.7c1.6 0 4.8 0.5 7 1.1 2.2 0.6 5.8 2.3 8 3.8 2.3 1.7 5.1 5 6.9 8.2 2.3 4.2 2.9 6.6 2.9 11.4 0 4.7-0.7 7.1-2.9 11.4-1.7 3.1-4.6 6.6-6.9 8.3-2.2 1.6-5.8 3.3-8 3.9-2.2 0.6-6.1 0.9-8.5 0.6-2.5-0.2-6.1-1.2-8-2.2-2-0.9-4-1.6-4.6-1.4-0.6 0.2-12.5 8.8-51.9 37.8l0.3 6.3c0.3 4.9-0.1 7.4-2 11.7-1.3 2.9-3.9 6.7-5.8 8.4-2 1.6-5.1 3.7-7 4.5-2 0.8-6.2 1.5-9.5 1.5-4.2 0-7.3-0.7-10-2.1-2.2-1.1-5.3-3.3-6.9-4.9-1.6-1.6-3.8-4.6-4.9-6.8-1.2-2.4-2.1-6.1-2.2-14.3l-14.2-7.7-17.7 16.5c-9.8 9-17.7 16.5-17.7 16.5 0 0 0.7 2 1.6 4.5 0.8 2.4 1.5 6.3 1.4 8.5 0 2.2-0.6 5.5-1.2 7.5-0.7 1.9-2.5 5.2-4 7.2-1.5 2.1-5.1 4.9-8 6.4-3.9 1.9-6.8 2.6-11.2 2.6-4.8 0.1-7.1-0.5-11.4-2.8-2.9-1.6-6.5-4.5-7.9-6.4-1.4-2-3.3-5.6-4.1-8-0.8-2.7-1.2-6.4-0.9-9 0.3-2.5 1.4-6.3 2.5-8.5 1.1-2.2 3.8-5.7 5.9-7.6 2.1-2 5.7-4.2 7.9-4.9 2.7-0.9 6.3-1.1 18.5 0l19.5-18c13.6-12.7 20.6-18.4 23.2-19.2 3.6-1.1 4.3-0.9 24.8 8.9l3-2.3c1.6-1.3 4.5-2.8 6.5-3.4 1.9-0.5 5.7-1 8.5-1 2.8 0 6.9 0.9 14 4l7.1-5.3c3.9-2.9 15.6-11.5 44.9-33.1l-0.4-6.1c-0.2-3.4 0.2-7.8 0.9-10 0.7-2.2 2.9-5.8 4.9-7.9 2-2.1 4.8-4.6 6.4-5.4 1.5-0.9 4-1.9 5.5-2.3 1.4-0.4 4-0.8 5.7-0.9zm-6.9 19.1c-0.9 1.3-1.7 3.8-1.7 5.6 0.1 2.3 1 4.2 3.1 6.3q3 3 6 3c1.8 0 4.1-1.1 6-2.8 2.5-2.2 3.1-3.5 3.1-6.7 0-3.3-0.6-4.6-3.1-6.8-1.7-1.5-4.1-2.7-5.3-2.7-1.2 0-3.2 0.5-4.4 0.9-1.2 0.5-2.9 2-3.7 3.2zm-91 67.9c-0.9 1.7-1.4 4.1-1.2 5.7 0.3 1.5 1.6 3.7 2.8 4.9 1.2 1.2 3.3 2.4 4.5 2.7 1.2 0.4 3.8 0 5.8-0.8 1.9-0.9 3.9-2.4 4.5-3.5 0.5-1.1 1-3.4 1-5q0-3-3-6c-2.2-2.2-4-3-6.3-3-1.8 0-4 0.5-4.8 1-0.9 0.6-2.4 2.4-3.3 4zm96.4 18c11.2 0 22.1 0.4 24.2 1 2.1 0.5 5.2 2.2 6.9 3.7 1.8 1.5 3.8 4.2 4.5 6 1.1 2.6 1.4 14.7 1.4 113.3h6.7c5.6 0 7.1 0.4 9 2.2 1.5 1.5 2.3 3.4 2.3 5.5 0 2.4-0.8 3.8-2.8 5.3-2.7 2-3.5 2-279.2 2l-2.5-2.5c-1.4-1.4-2.5-3.7-2.5-5 0-1.4 1.1-3.7 2.4-5 2.1-2.2 3.4-2.5 15.6-2.5v-19.8c0-17 0.3-20.3 1.8-23.7 1-2.2 2.7-4.8 3.8-5.8 1-1 3.7-2.4 5.9-3.2 3-1.1 9-1.5 24.5-1.5 11.7 0 22.2 0.4 24.5 1 2.2 0.6 5.3 2.3 6.8 3.8 1.6 1.5 3.5 4.1 4.3 5.9 1 2.4 1.4 8.5 1.4 43.3h16v-38.3c0-35 0.2-38.6 1.8-42.2 1-2.2 2.7-4.8 3.8-5.8 1-1 3.7-2.4 5.9-3.2 3-1.1 9-1.5 24.5-1.5 11.2 0 22.1 0.4 24.2 1 2.1 0.5 5.2 2.2 6.9 3.7 1.8 1.5 3.8 4.2 4.5 6 1.1 2.5 1.4 12 1.4 80.3h16v-23.5c0-16.8 0.3-24.3 1.2-26.1 0.7-1.4 2.5-2.9 4-3.5 1.8-0.6 3.6-0.6 5.3 0.1 1.3 0.5 2.9 1.9 3.5 3 0.5 1.1 1 12 1 50h43l-0.5-108.5h-42l-0.5 18.3c-0.5 16.9-0.7 18.4-2.5 19.7-1.1 0.8-3.5 1.5-5.3 1.5-2.4 0-3.8-0.8-5.3-2.8-1.8-2.5-2-4.2-2-19.7 0.1-9.4 0.5-18.6 1-20.5 0.6-2 2.2-4.8 3.8-6.3 1.5-1.5 4.6-3.4 6.8-4.2 3-1.1 9.1-1.5 24.5-1.5zm-372.1-89h47.1l3 3c2.3 2.3 2.8 3.6 2.4 5.7-0.3 1.5-1.5 3.6-2.7 4.5-2 1.7-4.6 1.8-26.5 1.8-22.9 0-24.4-0.2-26.2-2-1.2-1.2-2-3.3-2-5.1 0-1.8 1-4 2.5-5.5zm80.5 0c7.6-0.1 9.5 0.3 11.8 2 2.1 1.5 2.7 2.8 2.7 5.5 0 2.2-0.7 4.3-2 5.5-1.7 1.8-3.3 2-13 2-10.8 0-11 0-13-2.7-1.1-1.6-2-3.7-2-4.8 0-1.1 0.6-2.7 1.3-3.6 0.7-0.9 2.1-2.1 3.2-2.7 1.1-0.6 6.1-1.2 11-1.2zm-53.5 32l3 3c2.4 2.3 2.9 3.6 2.5 5.8-0.3 1.5-1.5 3.5-2.7 4.5-1.9 1.5-4.2 1.8-16.5 1.7-12.9 0-14.4-0.2-16.3-2-1.1-1.1-2-3.1-2-4.5 0-1.4 0.6-3.4 1.3-4.6 0.6-1.1 2.1-2.4 3.2-2.9 1.1-0.5 7.8-0.9 27.5-1zm64.2 0.5l2 2.5c1.1 1.4 1.9 3.7 1.9 5.3 0 1.5-1 3.6-2.1 4.7-1.8 1.9-3.3 2-44 2l-2-2.7c-1.1-1.6-2-3.7-2-4.8 0-1.1 0.6-2.7 1.3-3.6 0.7-0.9 2.1-2.2 3.2-2.8 1.4-0.7 8.6-1 41.7-0.6zm-30.2 53c4.7 0.3 11 1.2 14 2.1 3.1 0.9 8.7 3.2 12.5 5.3 3.9 2 9.9 6.3 13.4 9.6 3.5 3.3 8.1 8.8 10.2 12.3 2.2 3.4 5.1 9.7 6.6 14 1.7 4.9 2.8 10.7 3.1 16.2 0.3 5.6-0.1 11.1-1.1 16-0.9 4.1-3.4 11.1-5.6 15.5-2.2 4.4-6.2 10.5-8.8 13.5-2.7 3-8.2 7.7-12.3 10.5-4.1 2.7-10.6 6-14.5 7.4-5.3 1.9-9.6 2.6-18 2.9-7.9 0.3-12.7 0-17.5-1.2-3.5-0.9-9.8-3.3-14-5.3-5.4-2.8-9.6-5.9-15.5-11.8-6-5.9-9-9.9-11.7-15.5-2-4.1-4.4-10.6-5.3-14.5-1.2-5.1-1.5-9.8-1.2-17 0.3-6.1 1.3-12.5 2.6-16.5 1.1-3.6 3.8-9.3 5.9-12.7 2-3.5 6.2-8.8 9.2-11.9 3.1-3 7.8-7.1 10.5-8.9 2.8-1.8 8.1-4.5 11.8-5.9 3.7-1.4 9.1-3 12-3.5 2.9-0.6 9.1-0.8 13.7-0.6zm-28.5 22.2c-2.7 1.7-7.1 5.4-9.7 8.2-2.6 2.8-6.4 8.6-8.4 12.9-3.2 6.6-3.8 8.9-4.2 16.7-0.4 7.2 0 10.4 1.6 16 1.2 3.9 3.9 9.7 6 13 2.1 3.3 5.9 7.7 8.3 9.9 2.5 2.1 7.8 5.5 11.9 7.5 6.7 3.1 8.7 3.6 17 4 7.6 0.3 11 0 16.5-1.7 3.9-1.1 9.7-3.8 13-6 3.3-2.2 8-6.4 10.4-9.3 2.3-3 5.3-7.6 6.6-10.4 1.3-2.7 2.6-6.7 3-8.7l0.5-3.8c-41.1 0-48.7-0.4-50.5-1.2-1.4-0.7-2.9-2.6-3.5-4.3-0.5-1.6-1-7.9-1-14 0-6-0.2-16.5-0.6-23.2-0.3-6.8-0.9-12.3-1.2-12.3-0.4 0.1-2.9 0.8-5.7 1.8-2.7 0.9-7.2 3.1-10 4.9zm32.5 24.6v8.7h40.5c-1.1-5.8-2.7-10.2-4.3-13.5-1.7-3.3-5-8.2-7.4-11-2.4-2.7-6.6-6.4-9.3-8.2-2.7-1.8-7.7-4.1-11-5.3-3.3-1.1-6.8-2-7.9-2-1.8 0-1.8 0.6-1.2 11.3 0.3 6.1 0.6 15.1 0.6 20zm114.4-24.3c-0.5 2.8-0.1 4.1 1.9 6.5 1.3 1.7 3.7 3.3 5.3 3.7 1.8 0.4 4.1 0.1 5.9-0.7 1.7-0.8 3.6-2.6 4.3-4 0.7-1.4 1.2-3.6 1.2-5 0-1.4-1.2-3.8-3-5.5-2.1-2.2-3.9-3-6.4-3-2.1 0-4.4 0.9-6 2.3-1.5 1.2-2.9 3.7-3.2 5.7zm82.5 67.7l0.1 37.3h43l-0.5-75.5c-31.8-0.4-41.5-0.2-41.9 0.2-0.5 0.3-0.8 17.4-0.7 38zm-89 18.5l0.1 18.8h43l-0.5-38.5c-31.8-0.4-41.5-0.2-41.9 0.2-0.5 0.3-0.8 9.1-0.7 19.5zm31.1 87.8c0.8 0 2.8 0.9 4.3 2 2.1 1.5 2.7 2.8 2.7 5.5 0 2.2-0.7 4.3-2 5.5-1.1 1.1-3.3 2-5 2-1.6 0-3.8-0.9-5-2-1.1-1.2-2-3.4-2-5.4-0.1-2.7 0.5-3.9 2.6-5.5 1.5-1.2 3.5-2.1 4.4-2.1z"/>
</svg>