<svg version="1.2" xmlns="http://www.w3.org/2000/svg" viewBox="0 0 512 512">
	<title>Icon - Automation</title>
	<path fill="#3a4655" fill-rule="evenodd" d="m106.3 15.1c5.1-0.1 7.8 0.4 11.5 2.3 2.6 1.3 6.6 4.5 9 7.2 2.3 2.7 4.7 6.4 6.2 11.4h62.5c61.2 0 62.5 0 64.5 2 1.9 1.9 2 3.3 2 68h8c5.6 0 9.1 0.5 11.6 1.8 2 0.9 4.3 2.8 5.2 4.2 0.9 1.4 2.9 9 7.7 31.3l14 5.6 23.5-14.9v-65l-5.2-2.4c-2.9-1.3-6.6-3.9-8.2-5.8-1.6-1.8-3.8-5.1-4.9-7.3-1.5-2.9-2.1-5.9-2.1-11 0-3.9 0.7-8.5 1.5-10.5 0.9-1.9 3.1-5.3 5.1-7.5 1.9-2.2 6-5.2 9.1-6.8 4.1-1.9 7.2-2.7 11-2.7 3.6 0.1 7 0.9 11.2 2.9 3.5 1.7 7.3 4.5 9.2 6.7 1.7 2.2 3.9 5.9 4.7 8.4 0.9 2.5 1.6 7 1.6 10q0 5.5-2.4 10.5c-1.3 2.7-3.9 6.4-5.7 8.2-1.9 1.8-5.5 4.1-12.9 7.3v63.5l16.6 16.5c9.1 9.1 17.2 17.7 18 19.3 0.8 1.5 1.4 3.8 1.4 5.2 0 1.4-0.5 3.5-1.1 4.7-0.6 1.3-4.5 7.5-15.9 25.3l5.7 14 14.4 3.1c7.9 1.7 15.5 3.7 16.9 4.6 1.4 0.9 3.3 3.2 4.3 5.2 1.2 2.5 1.7 6 1.7 19.6h58l0.1-116.5-4.3-1.7c-2.4-1-6.1-3.5-8.2-5.5-2.2-2.1-5-6.3-6.4-9.3-2.1-4.6-2.4-6.5-2-12 0.3-3.7 1.4-8.2 2.6-10.5 1.1-2.2 3.5-5.4 5.4-7.2 1.8-1.7 5.3-4.1 7.8-5.2q4.5-2.1 11-2.1c5.2 0 7.6 0.5 11.9 2.7 3 1.6 7 4.6 8.8 6.8 1.9 2.2 4 6.2 4.9 9 0.8 2.7 1.4 6.7 1.4 8.7 0 2.1-0.9 6.2-1.9 9-1.4 3.8-3.5 6.7-7.3 10.1-2.9 2.6-6.8 5.2-11.8 6.7v62.5c0 61.2 0 62.5-2 64.5-1.9 1.9-3.3 2-68 2v8c0 5.6-0.5 9.1-1.7 11.6-1 2-2.9 4.3-4.3 5.2-1.4 0.9-9 2.9-31.3 7.7l-5.6 14 14.9 23.5h65l2.4-5.3c1.3-2.8 3.9-6.5 5.8-8.1 1.8-1.6 5.1-3.8 7.3-4.9 2.9-1.5 5.9-2.1 11-2.1 4 0 8.5 0.7 10.5 1.6 1.9 0.8 5.2 3 7.4 4.9 2.1 1.9 5 5.6 6.4 8.4 1.9 3.8 2.6 6.6 2.6 11.5 0.1 5.1-0.5 7.7-2.5 12-1.5 3-4.4 6.9-6.5 8.7-2.2 1.7-5.9 3.9-8.4 4.7-2.5 0.9-7 1.6-10 1.6-3.6 0-7.2-0.8-10.5-2.3-2.7-1.3-6.8-4.4-9-6.9-2.2-2.4-4.5-6-6.1-11.3l-63.9-0.5-17 16.9c-9.4 9.3-18 17.4-19.3 18-1.2 0.6-3.3 1.1-4.7 1.1-1.4 0-3.5-0.5-4.7-1.1-1.3-0.6-7.5-4.4-25.3-15.8l-14 5.6-3.1 14.4c-1.7 7.9-3.7 15.5-4.6 16.9-0.9 1.4-3.2 3.3-5.2 4.3-2.5 1.2-6 1.7-19.6 1.7v58l116.5 0.1 1.7-4.3c1-2.4 3.5-6.1 5.5-8.2 2.1-2.2 6.3-5 9.3-6.4 4.6-2.1 6.5-2.4 12-2 3.6 0.3 8 1.2 9.8 2.1 1.7 1 4.8 3.2 6.9 5 2 1.7 4.7 5.5 6 8.2 1.6 3.6 2.3 6.8 2.3 11.5 0 4.1-0.7 8-1.8 10.5-1 2.2-3.4 5.7-5.3 7.8-1.9 2.1-5.8 5-8.6 6.3-3.7 1.7-7.1 2.4-11.3 2.4-4.3 0-7.3-0.7-10.7-2.4-2.7-1.3-6.7-4.5-9.1-7.2-2.3-2.7-4.7-6.4-6.2-11.4h-62.5c-61.2 0-62.5 0-64.5-2-1.9-1.9-2-3.3-2-68h-8c-5.6 0-9.1-0.5-11.6-1.7-2-1-4.3-2.9-5.2-4.3-0.9-1.4-2.9-9-7.7-31.3l-14-5.6-23.5 14.9v65l5.3 2.4c2.8 1.3 6.5 3.9 8.1 5.8 1.6 1.8 3.8 5.1 4.9 7.3 1.5 2.9 2.1 5.9 2.1 11 0 4-0.7 8.5-1.6 10.5-0.8 1.9-3 5.2-4.9 7.4-1.9 2.1-6 5.2-9.1 6.7-4.2 2.1-7.2 2.9-11 2.9-3.7-0.1-7.1-0.9-11.3-2.9-3.5-1.7-7.3-4.5-9.2-6.7-1.7-2.2-3.9-5.9-4.7-8.4-0.9-2.5-1.6-7-1.6-10 0-3.6 0.8-7.2 2.3-10.5 1.3-2.7 4.4-6.8 6.9-9 2.4-2.2 6-4.5 11.3-6.1l0.5-63.9-16.9-17c-9.3-9.4-17.4-18-18-19.2-0.6-1.3-1.1-3.4-1.1-4.8 0-1.4 0.5-3.5 1.1-4.7 0.6-1.3 4.4-7.5 15.8-25.3l-5.6-14-14.4-3.1c-7.9-1.7-15.5-3.7-16.9-4.6-1.4-0.9-3.3-3.2-4.3-5.2-1.2-2.5-1.7-6-1.7-19.6h-58v117l3.7 1.2c2.1 0.6 5.8 3 8.2 5.2 2.4 2.3 5.3 5.9 6.4 8.1 1.7 3.1 2.2 5.8 2.2 12 0 5.7-0.5 8.9-1.8 11.3-0.9 1.7-3.2 4.8-5 6.9-1.7 2-5.5 4.7-8.2 6-3.6 1.6-6.8 2.3-11.5 2.3-5.1 0-7.6-0.6-11.9-2.7-3-1.6-7-4.6-8.8-6.8-1.9-2.2-4.1-6.5-5-9.5-0.9-3.4-1.4-7.4-1-10.5 0.2-2.7 1.4-6.8 2.4-9 1.1-2.2 4.2-5.9 6.9-8.3 2.7-2.3 6.4-4.7 11.4-6.2v-62.5c0-61.2 0-62.5 2-64.5 1.9-1.9 3.3-2 68-2v-8c0-5.6 0.5-9.1 1.7-11.7 1-2 2.9-4.3 4.3-5.2 1.4-0.8 9-2.9 31.3-7.6l5.6-14-14.9-23.5h-65l-2.4 5.3c-1.3 2.8-3.9 6.5-5.8 8.1-1.8 1.6-5.1 3.8-7.3 4.9-2.9 1.5-5.9 2.1-11 2.1-3.9 0-8.5-0.7-10.5-1.5-1.9-0.9-5.3-3.1-7.5-5.1-2.2-1.9-5.1-5.7-6.4-8.4-1.8-3.6-2.5-6.7-2.5-11.4-0.1-5.1 0.5-7.7 2.5-12 1.5-3 4.4-6.9 6.5-8.7 2.2-1.7 5.9-3.9 8.4-4.7 2.5-0.9 7-1.6 10-1.6q5.5 0 10.5 2.4c2.7 1.3 6.4 3.9 8.2 5.7 1.8 1.9 4.1 5.5 7.3 12.9h63.5l16.5-16.6c9.1-9.1 17.7-17.2 19.3-18 1.5-0.8 3.8-1.4 5.2-1.4 1.4 0 3.5 0.5 4.7 1.1 1.3 0.6 7.5 4.5 25.3 15.9l14-5.7 3.1-14.4c1.7-7.9 3.7-15.5 4.6-16.9 0.9-1.4 3.2-3.3 5.2-4.2 2.5-1.3 6-1.8 19.6-1.8v-58h-117l-1.2 3.8c-0.6 2-3 5.7-5.2 8.1-2.3 2.4-5.9 5.3-8.1 6.4-3.1 1.7-5.8 2.2-12 2.2-5.7 0-8.9-0.5-11.3-1.8-1.7-0.9-4.8-3.2-6.9-4.9-2-1.8-4.7-5.5-6-8.3-1.6-3.6-2.3-6.8-2.3-11.5 0-4.9 0.6-7.7 2.4-11.5 1.4-2.7 3.8-6.2 5.3-7.7 1.5-1.5 4.8-3.8 7.3-5.2 3.5-1.9 6-2.5 11.2-2.5zm-12 18.9c-1.5 2.4-2.2 4.9-2.2 8 0 2.7 0.8 5.8 2 7.8 1.1 1.7 3.5 4.1 5.2 5.2 1.9 1.1 5 2 7.3 2 2.3-0.1 5.6-1 7.8-2.3 2.5-1.4 4.5-3.7 5.9-6.7 1.5-3.2 1.9-5.5 1.5-8-0.4-1.9-1.5-4.6-2.4-5.9-1-1.3-2.9-3.2-4.3-4.3-1.4-1.1-4.5-2.1-7-2.4-3.2-0.4-5.5 0-8 1.3-1.9 1-4.5 3.4-5.8 5.3zm233.7-2.2c-2.5 2.5-3.9 5-4.4 7.7-0.6 3-0.2 5.2 1.2 8.5 1.1 2.7 3.3 5.4 5.3 6.8 2.9 2 4.5 2.3 9.2 2 4.3-0.2 6.2-0.9 8.3-2.8 1.5-1.4 3.3-3.7 4.1-5.2 0.8-1.6 1.4-4.7 1.4-7 0-2.7-0.9-5.6-2.3-7.7-1.2-1.9-4-4.3-6.2-5.3-2.2-1-4.9-1.7-6-1.6-1.1 0-3.1 0.3-4.4 0.5-1.4 0.3-4.2 2.1-6.2 4.1zm129.1 67.5c-1.1 1.8-2 4.9-2 7.2 0.1 2.3 1 5.6 2.3 7.8 1.4 2.5 3.7 4.5 6.7 5.9 3.2 1.5 5.5 1.9 8 1.5 1.9-0.4 4.6-1.5 6-2.6 1.4-1 3.3-2.9 4.3-4.2 1-1.3 2-4.4 2.3-6.9 0.4-3.2 0-5.5-1.3-8-1-1.9-3.4-4.5-5.3-5.8-2.4-1.5-4.9-2.2-8-2.2-2.7 0-5.8 0.8-7.7 2-1.8 1.1-4.2 3.5-5.3 5.3zm-223.6 26.5c-0.9 4.2-2.5 11.3-3.5 15.7-1 4.4-2.7 8.9-3.8 10-1.1 1.1-6.1 3.7-11.3 5.9-7.2 3-10.1 3.7-12.8 3.2-1.9-0.3-9.1-4.2-16-8.6l-12.5-8-29.6 29.5c12.5 19.4 16.4 26.6 16.7 28.5 0.5 2.7-0.3 5.6-3.2 12.8-2.2 5.2-4.8 10.2-5.9 11.3-1.1 1.1-5.6 2.8-10 3.8-4.4 1.1-11.5 2.6-15.7 3.5l-7.8 1.6v42c12 2.5 19.1 4 23.5 5.1 5.3 1.2 8.7 2.6 10.2 4.1 1.2 1.3 3.8 6.4 5.8 11.3 2.8 6.9 3.5 9.8 3.1 12.5-0.3 1.9-3.9 8.7-8 15-4 6.3-7.6 11.9-7.9 12.5-0.3 0.6 6 7.6 14.1 15.8l14.7 14.7c22.1-14 28-17 29.8-17 1.5 0 6.6 1.6 11.5 3.6 4.8 1.9 9.8 4.7 11.2 6.2 1.8 1.9 3.1 5.2 4.4 11.2 1 4.7 2.4 11.5 3.2 15.3l1.4 6.7h42c2.5-12 4-19.1 5.1-23.5 1.2-5.3 2.6-8.7 4.1-10.2 1.3-1.2 6.2-3.7 11.1-5.7 4.8-2 9.9-3.6 11.5-3.6 1.5 0 4.7 1.2 7.2 2.7 2.5 1.5 8.6 5.3 13.5 8.5l9 5.9c22.8-22.9 29.1-30 28.8-30.6-0.3-0.6-3.9-6.2-7.9-12.5-4.1-6.3-7.7-13.1-8-15-0.4-2.7 0.3-5.6 3.1-12.5 2-4.9 4.6-10 5.8-11.3 1.5-1.5 4.9-2.9 10.2-4.1 4.4-1.1 11.5-2.6 15.8-3.5l7.7-1.6v-42c-12-2.5-19.1-4-23.5-5.1-4.4-1-8.9-2.7-10-3.8-1.1-1.1-3.7-6.1-5.9-11.3-3-7.2-3.7-10.1-3.2-12.8 0.3-1.9 4.2-9.1 8.6-16l8-12.5c-22.9-22.8-29.9-29.1-30.5-28.8-0.5 0.3-6.2 3.9-12.5 7.9-6.3 4.1-13.1 7.7-15 8-2.7 0.4-5.6-0.3-12.5-3.1-4.9-2-10.1-4.8-11.5-6.3-1.8-1.9-3.1-5.2-4.4-11.2-1-4.7-2.4-11.5-3.2-15.2l-1.4-6.8h-41.9zm-204.6 41.8c-1.5 3.1-1.8 4.9-1.2 8.5 0.5 3.2 1.8 5.5 4.3 8.1q3.6 3.6 7.6 4.3c3 0.6 5.1 0.2 8.7-1.4 2.9-1.2 5.6-3.3 6.8-5.3 1.6-2.5 2-4.5 1.8-8.9-0.3-4.4-0.9-6.3-2.8-8.4-1.4-1.4-3.8-3.3-5.3-4-1.5-0.8-4.6-1.4-7-1.4-2.7 0-5.4 0.8-7.6 2.2-1.8 1.2-4.2 4.1-5.3 6.3zm428.1 162.7c-1.6 2.5-2 4.5-1.7 8.9 0.2 4.4 0.8 6.3 2.8 8.4 1.3 1.4 3.7 3.3 5.2 4 1.5 0.8 4.7 1.4 7 1.4 2.4 0 5.6-0.8 7.3-1.9 1.6-1 4-4 5.4-6.7 1.8-3.7 2.2-5.7 1.6-8.3-0.4-2-1.9-5.1-3.4-7-1.4-1.9-4.1-4-5.9-4.7-1.8-0.8-4.2-1.3-5.5-1.3-1.2 0-4.1 0.9-6.5 2-2.3 1.1-5.2 3.4-6.3 5.2zm-426.6 65.6c-1.3 1.7-2.6 4.6-2.9 6.4-0.4 1.8-0.4 4.6-0.1 6.3 0.4 1.6 1.5 4.2 2.6 5.7 1.2 1.5 3.4 3.4 5.1 4.3 1.6 0.8 4.9 1.4 7.2 1.4 2.5 0 5.6-0.8 7.5-2 1.8-1.1 4.2-3.4 5.3-5.2 1.1-1.9 1.9-5 1.9-7.2 0-2.3-1-5.7-2.2-7.9-1.4-2.2-3.8-4.5-6.2-5.7-2.2-1.1-5.2-1.9-6.5-1.9-1.4 0-4.1 0.6-5.9 1.4-1.9 0.7-4.5 2.7-5.8 4.4zm130 67.4c-0.7 1.5-1.3 4.7-1.3 7 0 2.3 0.9 5.6 1.9 7.3 1 1.6 3.8 4 6.2 5.3 3.6 1.9 5.2 2.1 8.9 1.5 3.2-0.5 5.5-1.7 8.1-4.3q3.6-3.5 4.3-7.5c0.6-3.1 0.3-5.2-1.3-8.8-1.3-2.9-3.4-5.5-5.4-6.7-2.1-1.4-5-2-8.4-2-4.2 0-5.8 0.5-8.4 2.7-1.8 1.5-3.8 4-4.6 5.5zm231.5 0.8c-1.5 3.2-1.9 5.5-1.5 8 0.4 1.9 1.5 4.6 2.5 6 1.1 1.3 3 3.3 4.3 4.3 1.3 1 4.4 2 6.9 2.3 3.1 0.3 5.5-0.1 7.9-1.3 2-1 4.6-3.4 5.8-5.3 1.6-2.4 2.3-5 2.3-8 0-2.7-0.8-5.9-2-7.8-1.1-1.8-3.5-4.1-5.3-5.2-1.8-1.2-5-2-7.2-2-2.3 0-5.6 0.9-7.8 2.2-2.5 1.5-4.5 3.8-5.9 6.8zm-87.8-296.1c0.8 0 2.3 0.6 3.3 1.3 1.3 0.9 2.3 4.4 3.7 13.8 1.1 6.8 2 14.1 2 16.2 0 2.8-0.6 4.1-2.3 5.1-1.2 0.8-7.4 2.2-13.7 3-6.4 0.9-13.2 1.7-15.3 1.7-3 0-4-0.5-5-2.6-0.9-1.8-0.9-3.3-0.2-5.2 0.6-1.7 2-2.9 4-3.4 1.6-0.4 4.8-1 11-2l-3-1.9c-1.7-1-6.6-3.1-11-4.6-7.1-2.4-9.5-2.8-21-2.8-11.8 0-13.9 0.2-22 2.9-5.2 1.7-12 4.9-16 7.6-3.9 2.5-10.1 7.8-13.8 11.8-4.9 5.2-8 9.7-11.2 16.4-2.6 5.4-5.1 12.5-6 17-0.8 4.3-1.5 10.3-1.5 13.5 0 3.2 0.5 8.7 1 12.3 1 5.8 0.9 6.6-0.7 8.2-1 1-3 1.8-4.3 1.8-1.4-0.1-3.1-0.4-3.8-0.8-0.6-0.4-1.7-2.3-2.2-4.2-0.6-2-1.4-8-1.7-13.5-0.4-8-0.1-12.1 1.5-20 1.5-7.2 3.6-13 7.3-20.5 4.6-9.4 6.4-11.7 15.3-20.6 8.3-8.3 11.7-10.9 19.1-14.7 4.9-2.5 12.6-5.6 17-6.9 6.6-1.9 10.3-2.3 21.5-2.3 10.8 0 15 0.5 21.2 2.2 4.3 1.3 10.9 3.8 21.8 9.3l-0.7-7.3c-0.6-6.9-0.5-7.3 1.8-9 1.3-1 3-1.8 3.9-1.8zm-46.5 46.3c8.5 0.3 10.8 0.8 16 3.2 3.3 1.6 8.2 5 10.9 7.5 2.6 2.5 6 6.4 7.4 8.6 1.3 2.2 3.3 6.4 4.3 9.5 1.2 3.4 1.9 8.3 1.9 13 0 4.6-0.7 9.5-1.9 13-1 3-3 7.3-4.4 9.5-1.4 2.2-4.5 5.8-6.9 8-2.4 2.3-5.7 4.9-7.3 5.9-1.7 1-5.5 2.7-8.5 3.7-3.4 1.2-8.4 1.9-13 1.9-4.7 0-9.6-0.7-13-1.9-3.1-1-7.3-3-9.5-4.4-2.2-1.3-6.1-4.7-8.6-7.4-2.5-2.7-5.9-7.5-7.5-10.8-2.7-5.6-2.9-6.8-2.9-17.5 0-10.8 0.2-12 2.9-17.5 1.6-3.3 5-8.2 7.5-10.9 2.5-2.7 6.4-6.1 8.6-7.5 2.2-1.3 6.2-3.3 9-4.3 3.9-1.5 7.1-1.8 15-1.6zm-22.8 20.5c-3 3-5.5 6.7-6.8 10-1.1 3-1.9 7.7-1.9 11 0 3.2 0.7 8 1.6 10.8 1.2 3.4 3.5 6.7 7.3 10.5 3.8 3.9 7.1 6.1 10.6 7.3 2.7 0.9 7.4 1.7 10.5 1.7 3 0 7.7-0.8 10.5-1.7 3.4-1.2 6.7-3.4 10.5-7.3 3.9-3.8 6.1-7.1 7.3-10.5 0.9-2.8 1.7-7.5 1.7-10.5 0-3.1-0.8-7.8-1.7-10.5-1.2-3.5-3.4-6.8-7.3-10.6-3.8-3.9-7.1-6.1-10.5-7.3-2.8-0.9-7.7-1.6-11-1.6-3.5 0-8.1 0.9-11 2-2.9 1.1-7.1 4-9.8 6.7zm96-1.7c0.7 0 2.1 0.7 3.1 1.7 1.1 1.1 2.3 4.7 3.1 9.3 0.9 4.7 1.1 10.8 0.7 16.5-0.3 4.9-1.3 11.7-2.2 15-0.8 3.3-2.6 8.7-4 12-1.3 3.3-3.9 8.4-5.7 11.3-1.8 3-6.4 8.8-10.2 12.9-3.9 4.1-10.2 9.6-14 12.2-3.9 2.6-10.7 6.1-15.3 7.9-4.5 1.7-12.4 3.9-17.5 4.8-6.2 1-11.9 1.4-17.2 1-4.4-0.3-11.6-1.5-16-2.7-4.4-1.1-11.3-3.6-15.3-5.5-4-1.9-7.5-3.4-7.7-3.4-0.3 0 0.2 1.9 1 4.2 0.8 2.3 1.5 5.5 1.5 7 0 1.5-0.7 3.4-1.6 4.3-0.9 0.8-2.6 1.5-3.8 1.5-1.2 0-2.9-0.6-3.8-1.3-0.9-0.7-3.5-7.1-5.7-14.2-2.3-7.2-4.1-13.9-4.1-15 0-1.1 0.5-2.8 1.2-3.8 0.7-1 7-3.5 14.8-5.9 9.1-2.8 14.4-3.9 16.2-3.5 1.8 0.4 3.1 1.6 3.8 3.4 0.8 2.1 0.6 3.3-0.5 5-0.9 1.3-3.8 2.9-6.8 3.9-2.9 0.9-5.7 1.9-6.2 2.4-0.6 0.4 2.2 2.3 6.5 4.3 4.1 2 10.4 4.4 14 5.3 4 1.1 10.4 1.7 17 1.8 6.8 0 12.7-0.6 17-1.7 3.5-1 10.3-3.6 15-6 6.7-3.3 10.3-6 17-12.7 5.9-5.9 9.6-10.7 12.1-15.5 2-3.9 4.6-10.2 5.8-14 1.2-3.9 2.4-10.6 2.8-15 0.3-4.5 0-11.1-0.6-15-0.7-3.9-0.9-7.8-0.5-8.7 0.4-0.8 1.7-2 2.8-2.6 1.1-0.6 2.6-1.1 3.3-1.2z"/>
</svg>