<svg xmlns="http://www.w3.org/2000/svg" fill="none" viewBox="0 0 174 38"><g clip-path="url(#a)"><path fill="#737373" d="M72.362 7.6v22.8h-3.865V12.508h-.052L61.54 30.4h-2.577l-7.061-17.892h-.052V30.4h-3.556V7.6h5.567l6.39 16.889h.104L67.105 7.6h5.257Zm3.196 1.742c0-.634.206-1.161.67-1.584.464-.422.98-.633 1.598-.633.67 0 1.237.211 1.65.633.411.423.67.95.67 1.584 0 .633-.207 1.16-.67 1.583-.465.422-.98.633-1.65.633-.67 0-1.186-.21-1.598-.633-.412-.475-.67-1.003-.67-1.583Zm4.175 4.697V30.4H75.97V14.039h3.763Zm11.39 13.564c.567 0 1.186-.106 1.856-.422a8.089 8.089 0 0 0 1.855-1.056v3.589a6.482 6.482 0 0 1-2.062.792 12.4 12.4 0 0 1-2.525.264c-2.37 0-4.278-.74-5.721-2.27-1.495-1.53-2.216-3.483-2.216-5.805 0-2.64.773-4.803 2.268-6.492 1.494-1.69 3.607-2.534 6.39-2.534.722 0 1.444.106 2.114.264a6.917 6.917 0 0 1 1.7.634v3.694c-.566-.422-1.185-.791-1.752-1.003-.618-.21-1.237-.37-1.855-.37-1.495 0-2.68.476-3.608 1.479-.928 1.002-1.34 2.322-1.34 4.01 0 1.637.464 2.956 1.34 3.854.876.897 2.062 1.372 3.556 1.372Zm14.38-13.828c.309 0 .567 0 .825.053.257.053.463.105.618.158v3.906a2.291 2.291 0 0 0-.876-.422c-.412-.106-.825-.212-1.392-.212-.927 0-1.701.423-2.319 1.214-.619.792-.979 2.006-.979 3.695V30.4h-3.763V14.039h3.763v2.586h.051c.361-.897.876-1.583 1.546-2.111.722-.475 1.547-.739 2.526-.739Zm1.649 8.708c0-2.691.773-4.855 2.216-6.439 1.495-1.583 3.557-2.375 6.185-2.375 2.474 0 4.433.74 5.824 2.27 1.392 1.53 2.113 3.589 2.113 6.175 0 2.639-.773 4.75-2.216 6.333-1.494 1.584-3.504 2.375-6.081 2.375-2.474 0-4.433-.739-5.876-2.216-1.443-1.531-2.165-3.59-2.165-6.123Zm3.917-.158c0 1.689.361 3.008 1.134 3.906.773.897 1.856 1.372 3.247 1.372 1.34 0 2.423-.422 3.144-1.372.722-.898 1.083-2.217 1.083-4.012 0-1.741-.361-3.06-1.083-4.01-.721-.898-1.804-1.373-3.092-1.373-1.392 0-2.423.475-3.196 1.425-.876 1.003-1.237 2.322-1.237 4.064Zm18.039-3.958c0 .527.155 1.002.516 1.32.361.316 1.082.685 2.268 1.16 1.494.634 2.577 1.32 3.144 2.059.618.791.927 1.689.927 2.797 0 1.53-.567 2.744-1.752 3.694-1.134.95-2.732 1.373-4.69 1.373-.67 0-1.392-.106-2.217-.264-.824-.159-1.494-.37-2.061-.634v-3.8c.67.475 1.443.898 2.216 1.161.773.264 1.495.423 2.165.423.824 0 1.494-.106 1.855-.37.413-.264.619-.633.619-1.214 0-.527-.206-.95-.619-1.372-.412-.37-1.237-.792-2.371-1.267-1.391-.58-2.37-1.266-2.937-2.005-.567-.74-.877-1.69-.877-2.85 0-1.478.567-2.692 1.701-3.642 1.134-.95 2.629-1.425 4.433-1.425.567 0 1.185.053 1.855.211.67.159 1.289.317 1.753.475v3.748a11.034 11.034 0 0 0-1.753-.898 5.342 5.342 0 0 0-1.958-.37c-.722 0-1.289.16-1.65.423-.36.37-.567.739-.567 1.267Zm8.453 4.116c0-2.691.773-4.855 2.216-6.439 1.495-1.583 3.557-2.375 6.185-2.375 2.474 0 4.433.74 5.824 2.27 1.392 1.53 2.113 3.589 2.113 6.175 0 2.639-.773 4.75-2.216 6.333-1.495 1.584-3.505 2.375-6.082 2.375-2.474 0-4.432-.739-5.875-2.216-1.392-1.531-2.165-3.59-2.165-6.123Zm3.917-.158c0 1.689.361 3.008 1.134 3.906.773.897 1.855 1.372 3.247 1.372 1.34 0 2.422-.422 3.144-1.372.722-.898 1.082-2.217 1.082-4.012 0-1.741-.36-3.06-1.082-4.01-.722-.898-1.804-1.373-3.092-1.373-1.392 0-2.423.475-3.196 1.425-.825 1.003-1.237 2.322-1.237 4.064Zm24.946-5.12h-5.618V30.4h-3.814V17.206h-2.68v-3.167h2.68v-2.27c0-1.688.567-3.113 1.649-4.222 1.082-1.108 2.474-1.636 4.175-1.636.464 0 .876.053 1.237.053.36 0 .67.105.927.211V9.5a6.152 6.152 0 0 0-.67-.264 3.35 3.35 0 0 0-1.082-.158c-.773 0-1.392.264-1.804.739-.412.475-.618 1.266-.618 2.216v1.953h5.618v-3.694l3.762-1.161v4.855H174v3.167h-3.814v7.653c0 1.002.206 1.688.515 2.11.361.423.928.634 1.701.634.206 0 .464-.053.773-.158.31-.106.567-.211.773-.37v3.167c-.257.158-.618.264-1.185.37a8.73 8.73 0 0 1-1.649.158c-1.598 0-2.783-.422-3.557-1.267-.773-.844-1.185-2.164-1.185-3.905l.052-8.34Z"/><path fill="#F25022" d="M17.627 0H0v18.05h17.627V0Z"/><path fill="#7FBA00" d="M37.109 0H19.482v18.05H37.11V0Z"/><path fill="#00A4EF" d="M17.627 19.95H0V38h17.627V19.95Z"/><path fill="#FFB900" d="M37.109 19.95H19.482V38H37.11V19.95Z"/></g><defs><clipPath id="a"><path fill="#fff" d="M0 0h174v38H0z"/></clipPath></defs></svg>