<svg xmlns="http://www.w3.org/2000/svg" fill="none" viewBox="0 0 162 44"><g fill="#000" clip-path="url(#a)"><path d="M50.445 21.153c0 7.194 4.613 12.21 11.005 12.21s11.005-5.016 11.005-12.21c0-7.194-4.613-12.21-11.005-12.21s-11.005 5.016-11.005 12.21Zm17.793 0c0 5.148-2.801 8.481-6.788 8.481s-6.787-3.333-6.787-8.481 2.8-8.481 6.787-8.481 6.788 3.333 6.788 8.481ZM84.332 33.363c4.844 0 7.611-4.092 7.611-9.009 0-4.917-2.767-9.009-7.611-9.009-2.24 0-3.888.891-4.975 2.178v-1.848h-3.954V38.94h3.954v-7.755c1.087 1.287 2.734 2.178 4.975 2.178Zm-5.074-9.504c0-3.267 1.845-5.049 4.283-5.049 2.867 0 4.415 2.244 4.415 5.544 0 3.3-1.548 5.544-4.415 5.544-2.438 0-4.283-1.815-4.283-5.016v-1.023ZM102.643 33.363c3.46 0 6.195-1.815 7.414-4.851l-3.394-1.287c-.527 1.782-2.076 2.772-4.02 2.772-2.537 0-4.316-1.815-4.612-4.785h12.125v-1.32c0-4.752-2.669-8.547-7.677-8.547-5.008 0-8.237 3.927-8.237 9.009 0 5.346 3.46 9.009 8.401 9.009Zm-.197-14.685c2.504 0 3.69 1.65 3.723 3.564h-7.94c.592-2.343 2.174-3.564 4.217-3.564ZM113.123 33h3.954V22.836c0-2.475 1.812-3.795 3.591-3.795 2.175 0 3.031 1.551 3.031 3.696V33h3.954V21.582c0-3.729-2.174-6.237-5.799-6.237-2.24 0-3.789 1.023-4.777 2.178v-1.848h-3.954V33ZM139.234 9.306 130.271 33h4.185l2.01-5.412h10.214L148.723 33h4.25l-8.962-23.694h-4.777Zm2.306 4.686 3.756 9.9h-7.446l3.69-9.9ZM159.761 9.375h-4.218v23.694h4.218V9.375ZM40.783 18.008a10.975 10.975 0 0 0-.94-9.003A11.063 11.063 0 0 0 27.92 3.686 10.94 10.94 0 0 0 19.665 0 11.072 11.072 0 0 0 9.106 7.675a10.95 10.95 0 0 0-7.318 5.317 11.103 11.103 0 0 0 1.361 13 10.975 10.975 0 0 0 .94 9.003 11.063 11.063 0 0 0 11.923 5.319 10.933 10.933 0 0 0 8.255 3.685 11.073 11.073 0 0 0 10.563-7.681A10.95 10.95 0 0 0 42.149 31a11.103 11.103 0 0 0-1.365-12.995l-.001.002ZM24.27 41.124A8.199 8.199 0 0 1 19 39.215c.067-.036.183-.1.259-.147l8.748-5.06c.447-.255.722-.732.72-1.247V20.409l3.696 2.138a.13.13 0 0 1 .072.102v10.229c-.006 4.548-3.684 8.236-8.225 8.245ZM6.582 33.556a8.22 8.22 0 0 1-.982-5.525c.065.039.178.109.26.155l8.747 5.06c.444.26.993.26 1.438 0l10.68-6.176v4.276a.137.137 0 0 1-.053.114l-8.842 5.114c-3.94 2.271-8.97.921-11.247-3.018h-.001ZM4.279 14.432a8.209 8.209 0 0 1 4.285-3.615c0 .076-.004.21-.004.303V21.24c-.003.514.272.991.718 1.246l10.68 6.175L16.26 30.8a.13.13 0 0 1-.125.011l-8.844-5.118c-3.93-2.28-5.278-7.316-3.013-11.26l.001-.001Zm30.377 7.08-10.68-6.177 3.697-2.136a.13.13 0 0 1 .125-.011l8.844 5.113c3.938 2.279 5.287 7.324 3.012 11.267a8.232 8.232 0 0 1-4.283 3.613V22.758a1.423 1.423 0 0 0-.714-1.246h-.001Zm3.679-5.547c-.065-.04-.178-.108-.26-.155l-8.748-5.06a1.422 1.422 0 0 0-1.437 0l-10.68 6.176V12.65a.137.137 0 0 1 .053-.114l8.842-5.11c3.94-2.275 8.975-.92 11.246 3.025a8.254 8.254 0 0 1 .981 5.514h.003Zm-23.134 7.622-3.699-2.138a.13.13 0 0 1-.071-.102V11.118c.002-4.554 3.691-8.244 8.238-8.242 1.924 0 3.785.677 5.264 1.909-.067.036-.183.1-.26.147l-8.748 5.06c-.447.254-.722.73-.719 1.246l-.005 12.346v.003Zm2.008-4.337 4.757-2.751 4.757 2.75v5.501l-4.757 2.75-4.757-2.75v-5.5Z"/></g><defs><clipPath id="a"><path fill="#fff" d="M0 0h162v44H0z"/></clipPath></defs></svg>