<svg xmlns="http://www.w3.org/2000/svg" fill="none" viewBox="0 0 156 31"><g clip-path="url(#a)"><path fill="#0081FB" d="M5.111 20.444c0 1.782.397 3.15.915 3.978.68 1.084 1.693 1.543 2.727 1.543 1.333 0 2.552-.326 4.902-3.531 1.883-2.57 4.1-6.176 5.593-8.437l2.528-3.83c1.756-2.66 3.788-5.618 6.118-7.622C29.796.909 31.848 0 33.914 0c3.467 0 6.77 1.982 9.297 5.698 2.766 4.071 4.109 9.198 4.109 14.49 0 3.145-.629 5.456-1.698 7.282-1.034 1.766-3.048 3.53-6.436 3.53v-5.035c2.901 0 3.625-2.629 3.625-5.638 0-4.288-1.014-9.047-3.247-12.447-1.584-2.412-3.638-3.886-5.897-3.886-2.444 0-4.41 1.818-6.62 5.06-1.175 1.721-2.382 3.82-3.736 6.188l-1.49 2.605c-2.996 5.237-3.754 6.43-5.252 8.4C13.945 29.693 11.703 31 8.753 31c-3.5 0-5.714-1.495-7.084-3.748C.549 25.417 0 23.008 0 20.264l5.111.18Z"/><path fill="url(#b)" d="M4.03 6.054C6.373 2.49 9.755 0 13.634 0c2.246 0 4.479.656 6.81 2.534 2.551 2.053 5.27 5.433 8.661 11.005l1.216 2c2.936 4.824 4.606 7.305 5.584 8.476 1.257 1.502 2.137 1.95 3.28 1.95 2.902 0 3.626-2.629 3.626-5.638l4.509-.14c0 3.146-.629 5.457-1.698 7.283-1.034 1.766-3.048 3.53-6.436 3.53-2.106 0-3.972-.451-6.036-2.371-1.586-1.474-3.44-4.092-4.868-6.445l-4.244-6.992c-2.129-3.51-4.082-6.126-5.213-7.31-1.216-1.275-2.78-2.813-5.274-2.813-2.019 0-3.734 1.397-5.168 3.535L4.03 6.054Z"/><path fill="url(#c)" d="M13.551 5.069c-2.019 0-3.734 1.397-5.168 3.535-2.03 3.02-3.272 7.52-3.272 11.84 0 1.782.397 3.15.915 3.978l-4.357 2.83C.549 25.417 0 23.008 0 20.264c0-4.991 1.389-10.193 4.03-14.21C6.373 2.49 9.755 0 13.634 0l-.083 5.069Z"/><path fill="#192830" d="M57.256.98h5.913L73.22 18.918 83.276.98h5.784v29.475h-4.823V7.865L75.42 23.508h-4.526L62.08 7.865v22.59h-4.823V.98Zm46.917 10.99c-3.459 0-5.543 2.567-6.041 5.747h11.739c-.242-3.275-2.157-5.747-5.698-5.747ZM93.35 19.528c0-6.69 4.384-11.559 10.907-11.559 6.416 0 10.247 4.808 10.247 11.916v1.307H98.132c.58 3.459 2.908 5.79 6.66 5.79 2.993 0 4.864-.901 6.638-2.549l2.562 3.095c-2.414 2.19-5.485 3.453-9.372 3.453-7.06 0-11.27-5.079-11.27-11.453Zm27.002-7.136h-4.44V8.497h4.44V2.055h4.654v6.442h6.745v3.895h-6.745v9.873c0 3.37 1.092 4.569 3.778 4.569 1.226 0 1.929-.104 2.967-.275v3.853c-1.294.36-2.528.526-3.864.526-5.024 0-7.535-2.707-7.535-8.126v-10.42Zm30.994 3.788c-.934-2.327-3.019-4.041-6.083-4.041-3.983 0-6.532 2.786-6.532 7.326 0 4.426 2.347 7.348 6.341 7.348 3.14 0 5.381-1.802 6.274-4.043v-6.59ZM156 30.455h-4.568V27.38c-1.277 1.81-3.601 3.6-7.364 3.6-6.052 0-10.097-4.998-10.097-11.516 0-6.58 4.142-11.496 10.354-11.496 3.07 0 5.479 1.21 7.107 3.348v-2.82H156v21.958Z"/></g><defs><linearGradient id="b" x1="10.038" x2="42.618" y1="18.989" y2="20.658" gradientUnits="userSpaceOnUse"><stop stop-color="#0064E1"/><stop offset=".4" stop-color="#0064E1"/><stop offset=".83" stop-color="#0073EE"/><stop offset="1" stop-color="#0082FB"/></linearGradient><linearGradient id="c" x1="7.405" x2="7.405" y1="22.56" y2="10.712" gradientUnits="userSpaceOnUse"><stop stop-color="#0082FB"/><stop offset="1" stop-color="#0064E0"/></linearGradient><clipPath id="a"><path fill="#fff" d="M0 0h156v31H0z"/></clipPath></defs></svg>